/vscmnt/brussel_pixiu_data/_data_brussel/112/vsc11236/PredSimResults/SUBJ10mtu3D/worker6.mot
version=1
nRows=10
nColumns=50
inDegrees=yes
endheader
                time	         pelvis_tilt	         pelvis_list	     pelvis_rotation	           pelvis_tx	           pelvis_ty	           pelvis_tz	       hip_flexion_r	     hip_adduction_r	      hip_rotation_r	        knee_angle_r	       ankle_angle_r	         mtp_angle_r	       hip_flexion_l	     hip_adduction_l	      hip_rotation_l	        knee_angle_l	       ankle_angle_l	         mtp_angle_l	    lumbar_extension	      lumbar_bending	     lumbar_rotation	 ercspn_r/activation	 intobl_r/activation	 extobl_r/activation	    abd_r/activation	    add_r/activation	hamstrings_r/activation	bifemsh_r/activation	glut_max_r/activation	iliopsoas_r/activation	rect_fem_r/activation	  vasti_r/activation	gastroc_r/activation	 soleus_r/activation	tib_ant_r/activation	 ercspn_l/activation	 intobl_l/activation	 extobl_l/activation	    abd_l/activation	    add_l/activation	hamstrings_l/activation	bifemsh_l/activation	glut_max_l/activation	iliopsoas_l/activation	rect_fem_l/activation	  vasti_l/activation	gastroc_l/activation	 soleus_l/activation	tib_ant_l/activation	
          1.68907718	         -4.56627712	          1.60184320	         -8.12976453	          2.04378339	          0.82117147	          0.01269749	        -16.90456713	         -1.66084856	          0.72204201	         -4.50194356	          7.37490617	         27.40964374	         31.30245717	         -1.36391827	         -6.41037102	         -6.26351085	          2.03030115	          0.26373252	         -6.43295979	          0.20009482	          6.52118186	          0.04343246	          0.01000000	          0.01000001	          0.05342048	          0.01000003	          0.01584662	          0.23094451	          0.01675286	          0.45078421	          0.01000011	          0.01000001	          0.34121608	          0.24625772	          0.02363134	          0.11512597	          0.18615902	          0.01187575	          0.01000003	          0.11645278	          0.13339096	          0.26991344	          0.02865545	          0.12022480	          0.01000005	          0.01000001	          0.01000135	          0.01000000	          0.30543079	
          1.70033770	         -4.62159260	          1.57591258	         -8.26387619	          2.05950429	          0.81977430	          0.01265821	        -16.98126579	         -1.77357116	          0.43848429	         -6.18261020	          6.64786509	         29.10123976	         31.25980950	         -1.26475437	         -6.24714160	         -7.88075376	          1.78890449	          0.26284491	         -6.23946662	         -0.24923404	          6.78903204	          0.08239019	          0.01000000	          0.01000001	          0.04497903	          0.01000023	          0.01334325	          0.19445090	          0.01410560	          0.37955184	          0.01000010	          0.01000002	          0.30595519	          0.23529001	          0.01989714	          0.09715158	          0.15674239	          0.01000002	          0.00999999	          0.16357492	          0.11364106	          0.22772997	          0.05966173	          0.10122700	          0.01000003	          0.01000000	          0.01739524	          0.01187715	          0.32408397	
          1.71159821	         -4.66502660	          1.55800445	         -8.35307785	          2.07556164	          0.81858184	          0.01254085	        -16.94309015	         -1.89915310	          0.12400034	         -8.11080339	          5.78600677	         30.73586012	         31.04573035	         -1.17088066	         -6.01473463	         -9.39917352	          1.40863989	          0.25333612	         -6.02499756	         -0.71810686	          7.03027217	          0.10158197	          0.01000000	          0.01000001	          0.03787149	          0.01000006	          0.01123539	          0.16372398	          0.01187666	          0.31957547	          0.01000007	          0.01000000	          0.25760847	          0.21800131	          0.01675301	          0.08236153	          0.13197413	          0.01000002	          0.02516141	          0.13772700	          0.09748284	          0.19174435	          0.09852982	          0.08523121	          0.01000001	          0.01000000	          0.01464646	          0.01000034	          0.40558522	
          1.72285873	         -4.69766348	          1.53792868	         -8.39009319	          2.09175870	          0.81770961	          0.01229279	        -16.73056002	         -2.02716742	         -0.22558912	        -10.36125446	          4.78931868	         32.22012758	         30.74236939	         -1.07046088	         -5.85729150	        -10.74673820	          0.90160802	          0.24040629	         -5.81340745	         -1.18395106	          7.23822709	          0.12730336	          0.01000000	          0.01000002	          0.03188708	          0.01000007	          0.01000526	          0.13785249	          0.01000004	          0.26907649	          0.01000013	          0.01000002	          0.21690144	          0.20050709	          0.01410572	          0.10184474	          0.11111971	          0.01000003	          0.07785196	          0.16974171	          0.08207875	          0.16144512	          0.11360775	          0.07176306	          0.01000002	          0.01000001	          0.01233205	          0.01000000	          0.45875097	
          1.73411924	         -4.71862541	          1.51303271	         -8.37978790	          2.10794140	          0.81725963	          0.01193018	        -16.29551617	         -2.15687901	         -0.61094655	        -12.99185852	          3.66950631	         33.40859884	         30.44129175	         -0.96790408	         -5.76880430	        -12.13096660	          0.50209488	          0.22498101	         -5.61794215	         -1.64336689	          7.41076076	          0.16355338	          0.01000000	          0.01000001	          0.02684831	          0.01617206	          0.01964291	          0.11606919	          0.01000004	          0.22655731	          0.01000005	          0.01000001	          0.18262690	          0.17228297	          0.01187675	          0.10815407	          0.09356069	          0.01000002	          0.11758488	          0.21813684	          0.07014969	          0.13593374	          0.12681232	          0.06042314	          0.01000002	          0.01000003	          0.01038336	          0.01000001	          0.47784381	
          1.74537976	         -4.72775592	          1.48610214	         -8.32750333	          2.12399868	          0.81731908	          0.01146863	        -15.59810203	         -2.29460224	         -1.04432659	        -16.04630035	          2.45075804	         34.10360688	         30.18591235	         -0.86348082	         -5.72682831	        -13.63527686	          0.32461104	          0.20887674	         -5.44358017	         -2.09685826	          7.54913678	          0.19044808	          0.01000000	          0.01000001	          0.02260577	          0.06834633	          0.01655567	          0.09772806	          0.01000000	          0.19075696	          0.01000003	          0.01000000	          0.15376838	          0.14505899	          0.01000000	          0.10770195	          0.07877632	          0.01000002	          0.14041247	          0.24994028	          0.06322797	          0.11445364	          0.13316311	          0.05087514	          0.01000002	          0.03807322	          0.01000001	          0.01000001	          0.47750167	
          1.75664027	         -4.72665873	          1.45293361	         -8.23390067	          2.13984910	          0.81797856	          0.01093113	        -14.60084416	         -2.44035271	         -1.54998287	        -19.56263645	          1.13518011	         34.11184313	         29.93203949	         -0.75631926	         -5.70993090	        -15.17150085	          0.41406995	          0.19315983	         -5.29339207	         -2.53828796	          7.65252026	          0.20181186	          0.01000000	          0.01000001	          0.01903363	          0.12603279	          0.01592984	          0.08228519	          0.01000000	          0.16061375	          0.01000002	          0.01000000	          0.12947006	          0.12213692	          0.01000000	          0.10548985	          0.06632817	          0.01000002	          0.14963407	          0.27161863	          0.06061878	          0.09636781	          0.13076664	          0.04283590	          0.01000002	          0.06332449	          0.01000001	          0.01000000	          0.45221764	
          1.76790079	         -4.71742884	          1.40763159	         -8.09902816	          2.15545662	          0.81925249	          0.01034432	        -13.29162174	         -2.59782577	         -2.13146245	        -23.50700475	         -0.40659553	         33.44734158	         29.60754158	         -0.64329037	         -5.68966282	        -16.60848053	          0.79407775	          0.19397320	         -5.16716623	         -2.96156783	          7.71910102	          0.20425402	          0.01000000	          0.01000001	          0.01602596	          0.18996197	          0.01662611	          0.06928260	          0.01000000	          0.13523373	          0.01000002	          0.01000000	          0.10901133	          0.10283697	          0.01000000	          0.09771997	          0.05584706	          0.01000002	          0.15089840	          0.27386976	          0.06003981	          0.08113988	          0.12616139	          0.03606702	          0.01000002	          0.08843037	          0.01000002	          0.01000001	          0.39669275	
          1.77916130	         -4.70277934	          1.34289563	         -7.92245566	          2.17078896	          0.82110562	          0.00973307	        -11.68358247	         -2.76998734	         -2.77508194	        -27.78176058	         -2.31968295	         32.15914309	         29.14221821	         -0.52189897	         -5.63100796	        -17.80576257	          1.42673188	          0.25097440	         -5.06666695	         -3.35996462	          7.74738292	          0.19688561	          0.01000000	          0.01000001	          0.01349355	          0.23625272	          0.01436940	          0.05833475	          0.00999999	          0.11386424	          0.01000002	          0.00999999	          0.09178547	          0.08658677	          0.00999999	          0.08227842	          0.04702217	          0.01000002	          0.14886439	          0.24420393	          0.06361282	          0.06831825	          0.10791805	          0.03036774	          0.01000001	          0.11731217	          0.01000001	          0.01000000	          0.33612076	
          1.79042182	         -4.68569604	          1.25041296	         -7.70409475	          2.18579945	          0.82347766	          0.00911223	         -9.81148328	         -2.95742208	         -3.44673275	        -32.23990312	         -4.72642670	         30.30278411	         28.49513210	         -0.39392251	         -5.50087398	        -18.65917630	          2.17191018	          0.37733396	         -4.99824903	         -3.72448309	          7.73657616	          0.19594378	          0.02276831	          0.01000001	          0.01136131	          0.19892066	          0.04291524	          0.05101787	          0.01000000	          0.09587154	          0.01000001	          0.00999999	          0.07728162	          0.07290442	          0.01000005	          0.06927688	          0.03959177	          0.01000003	          0.14594986	          0.20561513	          0.06884423	          0.05752269	          0.09086496	          0.02556906	          0.01000001	          0.11722507	          0.01000003	          0.01000001	          0.28300736	
